<?xml version="1.0" encoding="UTF-8" standalone="no"?>
<!-- Created with Inkscape (http://www.inkscape.org/) -->

<svg
   version="1.1"
   id="svg1"
   width="2012"
   height="750"
   viewBox="0 0 2012 750"
   sodipodi:docname="linuxFoundation.jpeg"
   xml:space="preserve"
   xmlns:inkscape="http://www.inkscape.org/namespaces/inkscape"
   xmlns:sodipodi="http://sodipodi.sourceforge.net/DTD/sodipodi-0.dtd"
   xmlns="http://www.w3.org/2000/svg"
   xmlns:svg="http://www.w3.org/2000/svg"><defs
     id="defs1" /><sodipodi:namedview
     id="namedview1"
     pagecolor="#ffffff"
     bordercolor="#000000"
     borderopacity="0.25"
     inkscape:showpageshadow="2"
     inkscape:pageopacity="0.0"
     inkscape:pagecheckerboard="0"
     inkscape:deskcolor="#d1d1d1" /><g
     inkscape:groupmode="layer"
     inkscape:label="Image"
     id="g1"
     transform="translate(1627.5421,-375)"><g
       id="g3"><rect
         style="fill:#f9f9f9;fill-opacity:1;stroke-width:5.679"
         id="rect2"
         width="2012"
         height="750"
         x="-1627.5421"
         y="375" /><g
         id="g2"
         transform="translate(2.7684449e-5)"><path
           id="Path_1"
           data-name="Path 1"
           d="m -766.51613,710.55725 v 114.45752 h -66.03434 V 725.2349 a 263.96659,263.96659 0 0 0 -1.46676,-26.7734 c -2.20014,-18.71626 -11.05094,-29.71696 -28.25021,-29.71696 -21.27806,0 -29.70691,19.43959 -29.70691,52.82346 v 103.47691 h -66.03434 v -99.77988 a 263.78575,263.78575 0 0 0 -1.46676,-26.77339 c -2.20014,-18.71626 -11.05094,-29.71696 -28.25021,-29.71696 -21.27804,0 -29.71694,19.43959 -29.71694,52.82345 v 103.47691 h -66.0243 V 629.17216 h 66.0243 v 31.54538 l 15.7827,-25.31668 a 75.236756,75.236756 0 0 1 42.19449,-11.37241 c 33.38386,0 54.25003,16.51612 62.72911,38.17595 l 20.54469,-26.78344 a 75.206617,75.206617 0 0 1 42.19447,-11.37242 c 39.2509,0 61.28244,22.73478 65.66263,49.51822 a 257.09491,257.09491 0 0 1 1.81838,36.99049 z"
           fill="#111111"
           style="fill:#1a1a1a;stroke-width:10.0463" /><path
           id="Path_2"
           data-name="Path 2"
           d="m -534.15521,824.99467 h -66.0243 v -33.01214 l -17.57098,26.78344 a 81.626204,81.626204 0 0 1 -44.01285,11.37241 c -40.356,0 -64.9393,-22.73478 -69.31948,-49.51822 A 257.87853,257.87853 0 0 1 -732.9213,743.5694 V 629.11188 h 65.94393 v 99.77987 a 264.26797,264.26797 0 0 0 1.46676,26.78344 c 2.20014,18.70621 11.05093,29.70692 31.9171,29.70692 20.86617,0 33.38386,-19.4396 33.38386,-45.47961 V 629.11188 h 66.0243 z"
           fill="#111111"
           style="fill:#1a1a1a;stroke-width:10.0463" /><path
           id="Path_3"
           data-name="Path 3"
           d="m -288.90489,825.09514 h -66.03434 v -28.63196 l -14.6676,21.63973 a 89.592921,89.592921 0 0 1 -49.88994,12.05556 c -53.18512,0 -86.20732,-40.71766 -86.20732,-98.67477 0,-69.6912 42.55614,-107.49544 92.81779,-107.49544 a 101.64848,101.64848 0 0 1 45.11794,9.53394 l 12.83918,20.90636 v -99.03645 h 66.03434 z m -66.03434,-95.37959 v -8.4389 c 0,-39.2509 -20.17298,-52.45174 -39.98428,-52.45174 -25.67835,0 -43.27947,19.43959 -43.27947,59.42388 0,36.67904 18.34455,57.26392 41.45104,57.26392 24.21159,-0.0301 41.81271,-14.69774 41.81271,-55.78712 z"
           fill="#111111"
           style="fill:#1a1a1a;stroke-width:10.0463" /><path
           id="Path_4"
           data-name="Path 4"
           d="m -182.25335,581.89426 a 34.157427,34.157427 0 1 1 -34.15742,-32.27877 31.143536,31.143536 0 0 1 34.15742,32.27877 z m -67.12939,243.21092 V 629.20229 h 66.03435 v 195.90289 z"
           fill="#111111"
           style="fill:#1a1a1a;stroke-width:10.0463" /><path
           id="Path_5"
           data-name="Path 5"
           d="m -64.741752,744.03153 c 0,6.60042 0,13.94426 0.361667,19.08797 1.46676,19.80126 7.705514,24.21159 38.879189,22.74483 v 41.08937 a 222.79684,222.79684 0 0 1 -38.879189,3.29519 c -48.794885,0 -63.462485,-15.06945 -65.662625,-45.11794 -0.73338,-11.37242 -0.73338,-20.53464 -0.73338,-31.54539 v -81.82713 h -31.14354 V 630.6791 h 31.14354 v -50.64341 h 66.024292 v 50.62332 h 43.279469 v 41.07933 h -43.279469 z"
           fill="#111111"
           style="fill:#1a1a1a;stroke-width:10.0463" /><path
           id="Path_6"
           data-name="Path 6"
           d="m 113.17826,796.39285 -8.03704,20.53464 a 89.613014,89.613014 0 0 1 -48.413134,13.20084 c -32.288815,0 -62.7391562,-20.17297 -62.7391562,-57.95711 0,-41.81271 39.6226152,-67.49106 106.0186202,-67.49106 h 12.47751 v -2.94357 a 108.04798,108.04798 0 0 0 -0.74342,-14.30593 21.639735,21.639735 0 0 0 -23.478212,-18.70621 c -15.411027,0 -24.211588,9.90565 -25.316681,26.77339 L 0.58935026,695.86955 C 0.95101713,650.01823 41.668679,623.96817 91.196948,623.96817 c 61.985682,0 83.263752,27.51682 86.207322,63.09078 0.73338,9.90565 1.10509,21.27807 1.10509,33.38386 v 55.0236 a 337.70644,337.70644 0 0 0 3.6669,49.51822 h -64.55754 z m -0.72334,-41.46109 v -12.83917 c -29.716958,-2.20014 -50.995026,5.50537 -50.995026,24.94497 0,11.73408 9.172274,18.3345 22.373115,18.3345 A 28.812794,28.812794 0 0 0 112.45492,754.982 Z"
           fill="#111111"
           style="fill:#1a1a1a;stroke-width:10.0463" /><g
           id="Group_1"
           data-name="Group 1"
           transform="matrix(10.046302,0,0,10.046302,-1425.2622,549.61549)"><path
             id="Path_7"
             data-name="Path 7"
             d="m 508.581,340.384 c -1.091,-6.391 -6.466,-9.425 -8.517,-16.02 l -1.278,-4.119 a 64.965,64.965 0 0 1 -4.755,11.046 c -0.088,0.149 -0.18,0.309 -0.269,0.462 a 24.773,24.773 0 0 1 -4.109,-7.389 l -1.277,-4.119 a 64.943,64.943 0 0 1 -4.755,11.046 c -2.65,4.468 -6.131,10.912 -0.935,16.887 h 5.791 c -8.516,-9.256 -2.679,-17.569 -2.679,-17.569 0,0 5.43,7.815 7.228,11.06 a 7.2,7.2 0 0 1 0,6.51 c 0,0 6.235,-1.4 5.144,-7.794 a 16.814,16.814 0 0 0 -3.244,-7.024 11.382,11.382 0 0 1 1.282,-2.751 c 0,0 5.43,7.815 7.228,11.06 a 7.2,7.2 0 0 1 0,6.51 c 0,0 6.235,-1.405 5.145,-7.796 z"
             transform="translate(-480,-320.245)"
             fill="#bd2b26" /></g><circle
           id="Ellipse_1"
           data-name="Ellipse 1"
           cx="-1408.0428"
           cy="591.46838"
           r="17.219362"
           fill="#bd2b26"
           style="stroke-width:10.0463" /><g
           id="Group_2"
           data-name="Group 2"
           transform="matrix(10.046302,0,0,10.046302,-136.66323,862.83909)"
           style="fill:#1a1a1a"><path
             id="Path_8"
             data-name="Path 8"
             d="m 742.609,387.766 h -2.226 c -0.1,-0.465 -0.328,-0.729 -0.73,-0.729 a 0.5,0.5 0 0 0 -0.54,0.491 c 0,0.377 0.3,0.628 1.585,0.943 1.219,0.3 2.087,0.83 2.087,2.125 0,1.433 -1.345,2.1 -2.968,2.1 -1.823,0 -3.068,-0.755 -3.244,-2.263 h 2.227 a 1.051,1.051 0 0 0 1.006,0.855 c 0.4,0 0.717,-0.164 0.717,-0.516 0,-0.427 -0.428,-0.666 -1.623,-0.943 -1.283,-0.3 -2.05,-0.893 -2.05,-2.038 0,-1.332 1.157,-2.162 2.943,-2.162 a 2.559,2.559 0 0 1 2.816,2.137 z"
             transform="translate(-736.573,-384.12)"
             fill="#111111"
             style="fill:#1a1a1a" /><path
             id="Path_9"
             data-name="Path 9"
             d="m 752.854,388.234 c 0,0.227 0,0.478 0.012,0.654 0.051,0.679 0.264,0.83 1.333,0.78 v 1.408 a 7.665,7.665 0 0 1 -1.333,0.113 c -1.672,0 -2.175,-0.516 -2.25,-1.547 -0.025,-0.39 -0.025,-0.7 -0.025,-1.082 v -2.8 h -1.069 v -1.408 h 1.069 v -1.736 h 2.263 v 1.736 h 1.483 v 1.408 h -1.483 z"
             transform="translate(-743.043,-382.612)"
             fill="#111111"
             style="fill:#1a1a1a" /><path
             id="Path_10"
             data-name="Path 10"
             d="m 767.12,389.163 a 3.61,3.61 0 1 1 -3.609,-3.534 3.341,3.341 0 0 1 3.609,3.534 z m -2.313,0 c 0,-1.345 -0.49,-2 -1.3,-2 -0.81,0 -1.3,0.655 -1.3,2 0,1.345 0.491,2 1.3,2 0.809,0 1.299,-0.663 1.299,-2 z"
             transform="translate(-748.229,-384.12)"
             fill="#111111"
             style="fill:#1a1a1a" /><path
             id="Path_11"
             data-name="Path 11"
             d="m 780.871,385.666 v 1.849 c -1.7,-0.113 -2.313,0.515 -2.313,2.541 v 2.465 h -2.264 v -6.715 h 2.264 v 1.357 l 0.477,-0.943 a 1.843,1.843 0 0 1 1.321,-0.591 3.1,3.1 0 0 1 0.515,0.037 z"
             transform="translate(-756.42,-384.12)"
             fill="#111111"
             style="fill:#1a1a1a" /><path
             id="Path_12"
             data-name="Path 12"
             d="m 793.016,389.728 h -4.678 c 0.113,1.119 0.6,1.434 1.244,1.434 a 1.014,1.014 0 0 0 1.119,-0.842 h 2.226 a 3.193,3.193 0 0 1 -3.371,2.377 3.234,3.234 0 0 1 -3.458,-3.509 3.419,3.419 0 0 1 3.584,-3.559 3.275,3.275 0 0 1 3.371,3.446 6.068,6.068 0 0 1 -0.037,0.653 z m -4.6,-1.383 h 2.276 c -0.126,-0.792 -0.515,-1.182 -1.119,-1.182 -0.604,0 -1.009,0.352 -1.16,1.182 z"
             transform="translate(-761.32,-384.12)"
             fill="#111111"
             style="fill:#1a1a1a" /></g></g></g></g></svg>
